<svg xmlns="http://www.w3.org/2000/svg" viewBox="0 0 297.55 66.38" fill="currentColor" role="img" aria-label="OOVERT">
  <path d="M148.46,65.32h-10.12l-21.6-51.52h12.75l13.91,35.82,13.8-35.82h12.85l-21.6,51.52Z"/>
  <path d="M220.79,43.41h-39.51c1.47,7.59,6.74,12.33,15.07,12.33,6.32,0,11.27-2.95,12.33-7.38h11.8c-1.9,10.85-11.7,18.02-24.34,18.02-15.07,0-26.76-11.7-26.76-27.08s11.7-26.55,26.55-26.55c13.91,0,25.18,10.64,25.18,25.71,0,1.37-.11,4-.32,4.95ZM208.36,33.4c-1.05-5.9-6.01-10.01-13.07-10.01s-12.01,3.69-13.7,10.01h26.76Z"/>
  <path d="M258.36,13.38v10.75c-1.69-.42-3.48-.74-5.16-.74-7.48,0-13.59,5.16-13.59,14.43v27.5h-11.69V13.8h11.69v6.85c3.06-4.95,7.8-7.9,13.91-7.9,1.58,0,3.27.32,4.85.63Z"/>
  <path d="M284.07,24.97v20.76c0,6.53,4,9.17,9.69,9.17,1.26,0,2.63-.11,3.79-.42v10.85c-1.79.42-4.42.63-6.32.63-11.38,0-18.96-6.95-18.96-20.02v-20.97h-9.8v-11.17h9.8V0h11.8v13.8h13.49v11.17h-13.49Z"/>
  <path d="M38.9,14.59c10.39,2.55,17.39,13.26,17.3,23.78.5,19.73-19.54,32.79-37.82,26.35C-1.3,58.18-6.66,31.27,9.61,18.32c2.35-1.8,5-3.07,7.72-3.77l.9,1.89c-7.51,5.57-10.79,15.8-7.96,24.48,3.52,12.29,18.76,16.83,28.84,9.6,11.26-8.17,9.92-25.95-1.12-34.05,0,0,.9-1.89.9-1.89h0Z"/>
  <path d="M21.98,47.63c-6.91-1.73-10.83-9.35-9.67-16.22.97-7.56,8.26-13.41,15.83-13.24,14.62-.09,21.73,17.93,10.51,27.34-1.34,1.01-2.84,1.76-4.39,2.15l-.51-1.08c4.41-3.34,6.09-8.92,4.53-13.93-1.88-6.93-10.8-9.59-16.41-5.47-6.33,4.56-5.72,14.78.64,19.38,0,0-.51,1.08-.51,1.08h0Z"/>
  <path d="M77.71,64.53c-10.39-2.55-17.39-13.26-17.3-23.78-.5-19.73,19.54-32.79,37.82-26.35,19.68,6.54,25.04,33.45,8.77,46.4-2.35,1.8-5,3.07-7.72,3.77l-.9-1.89c7.51-5.57,10.78-15.8,7.96-24.48-3.52-12.29-18.76-16.83-28.84-9.6-11.26,8.17-9.92,25.95,1.12,34.05,0,0-.9,1.89-.9,1.89h0Z"/>
  <path d="M94.63,31.5c6.91,1.73,10.83,9.35,9.67,16.22-.97,7.56-8.26,13.41-15.83,13.24-14.62.09-21.73-17.93-10.51-27.34,1.34-1.01,2.84-1.76,4.39-2.15l.51,1.08c-4.41,3.34-6.09,8.92-4.53,13.93,1.88,6.93,10.8,9.59,16.41,5.47,6.33-4.56,5.72-14.78-.64-19.38,0,0,.51-1.08.51-1.08h0Z"/>
</svg>
