<svg xmlns="http://www.w3.org/2000/svg" viewBox="0 0 128 128">
  <rect width="128" height="128" fill="#16140F"/>
  <g transform="translate(5.7 24.46)" fill="#815EFA">
    <path d="M38.9,14.59c10.39,2.55,17.39,13.26,17.3,23.78.5,19.73-19.54,32.79-37.82,26.35C-1.3,58.18-6.66,31.27,9.61,18.32c2.35-1.8,5-3.07,7.72-3.77l.9,1.89c-7.51,5.57-10.79,15.8-7.96,24.48,3.52,12.29,18.76,16.83,28.84,9.6,11.26-8.17,9.92-25.95-1.12-34.05,0,0,.9-1.89.9-1.89h0Z"/>
    <path d="M21.98,47.63c-6.91-1.73-10.83-9.35-9.67-16.22.97-7.56,8.26-13.41,15.83-13.24,14.62-.09,21.73,17.93,10.51,27.34-1.34,1.01-2.84,1.76-4.39,2.15l-.51-1.08c4.41-3.34,6.09-8.92,4.53-13.93-1.88-6.93-10.8-9.59-16.41-5.47-6.33,4.56-5.72,14.78.64,19.38,0,0-.51,1.08-.51,1.08h0Z"/>
    <path d="M77.71,64.53c-10.39-2.55-17.39-13.26-17.3-23.78-.5-19.73,19.54-32.79,37.82-26.35,19.68,6.54,25.04,33.45,8.77,46.4-2.35,1.8-5,3.07-7.72,3.77l-.9-1.89c7.51-5.57,10.78-15.8,7.96-24.48-3.52-12.29-18.76-16.83-28.84-9.6-11.26,8.17-9.92,25.95,1.12,34.05,0,0-.9,1.89-.9,1.89h0Z"/>
    <path d="M94.63,31.5c6.91,1.73,10.83,9.35,9.67,16.22-.97,7.56-8.26,13.41-15.83,13.24-14.62.09-21.73-17.93-10.51-27.34,1.34-1.01,2.84-1.76,4.39-2.15l.51,1.08c-4.41,3.34-6.09,8.92-4.53,13.93,1.88,6.93,10.8,9.59,16.41,5.47,6.33-4.56,5.72-14.78-.64-19.38,0,0,.51-1.08.51-1.08h0Z"/>
  </g>
</svg>
